<!--?xml version="1.0" standalone="no"?-->

<svg version="1.0" xmlns="http://www.w3.org/2000/svg" width="300.000000pt" height="225.000000pt" viewBox="0 0 300.000000 225.000000" preserveAspectRatio="xMidYMid meet">
<g transform="translate(0.000000,225.000000) scale(0.100000,-0.100000)" fill="#0E0E0E" stroke="none">
<path d="M1975 1380 l-220 -209 -756 -1 c-416 0 -759 3 -763 7 -4 4 42 53 101
109 l108 103 -37 37 -37 38 -103 -99 c-208 -200 -228 -221 -228 -247 0 -18 38
-61 161 -179 89 -85 165 -155 168 -157 4 -1 22 14 41 34 l35 36 -108 102 c-59
56 -105 105 -101 109 4 4 347 7 763 7 l756 -1 76 -72 c42 -39 143 -135 223
-211 l147 -140 37 38 37 37 -45 41 c-158 146 -309 296 -303 301 3 4 41 7 83 7
l77 0 60 -57 c33 -32 132 -127 220 -210 88 -84 165 -153 170 -153 6 0 23 16
38 36 l27 36 -64 61 c-35 34 -112 108 -171 164 -59 57 -107 107 -107 113 0 6
33 10 81 10 l82 0 164 -157 c91 -87 192 -183 225 -213 l61 -54 33 38 32 37
-175 167 c-202 193 -228 224 -214 250 5 10 93 98 195 196 l186 178 -28 33
c-15 19 -31 34 -37 34 -11 1 -34 -20 -277 -251 l-166 -158 -81 0 c-51 0 -81 4
-81 11 0 6 48 56 107 112 59 56 137 130 172 163 l65 62 -28 36 c-15 20 -32 36
-38 36 -11 0 -45 -31 -311 -287 l-137 -133 -78 0 c-43 0 -82 3 -86 7 -4 4 22
35 58 68 35 33 115 109 176 169 l112 108 -33 34 c-18 19 -35 34 -38 34 -4 -1
-105 -95 -226 -210z" id="node1" class="node"></path>
</g>
<g transform="translate(0.000000,225.000000) scale(0.100000,-0.100000)" fill="#A1A1A1" stroke="none">

</g>
</svg>