<?xml version="1.0" encoding="UTF-8" standalone="no"?>
<!-- Created with Inkscape (http://www.inkscape.org/) -->

<svg
   xmlns:dc="http://purl.org/dc/elements/1.1/"
   xmlns:cc="http://creativecommons.org/ns#"
   xmlns:rdf="http://www.w3.org/1999/02/22-rdf-syntax-ns#"
   xmlns:svg="http://www.w3.org/2000/svg"
   xmlns="http://www.w3.org/2000/svg"
   xmlns:sodipodi="http://sodipodi.sourceforge.net/DTD/sodipodi-0.dtd"
   xmlns:inkscape="http://www.inkscape.org/namespaces/inkscape"
   width="210mm"
   height="297mm"
   viewBox="0 0 744.09448819 1052.3622047"
   id="svg3480"
   version="1.1"
   inkscape:version="0.91 r13725"
   sodipodi:docname="wheat.svg">
  <defs
     id="defs3482" />
  <sodipodi:namedview
     id="base"
     pagecolor="#ffffff"
     bordercolor="#666666"
     borderopacity="1.0"
     inkscape:pageopacity="0.0"
     inkscape:pageshadow="2"
     inkscape:zoom="0.7"
     inkscape:cx="157.85399"
     inkscape:cy="540.55745"
     inkscape:document-units="px"
     inkscape:current-layer="layer1"
     showgrid="false"
     inkscape:window-width="1920"
     inkscape:window-height="1017"
     inkscape:window-x="-8"
     inkscape:window-y="-8"
     inkscape:window-maximized="1" />
  <metadata
     id="metadata3485">
    <rdf:RDF>
      <cc:Work
         rdf:about="">
        <dc:format>image/svg+xml</dc:format>
        <dc:type
           rdf:resource="http://purl.org/dc/dcmitype/StillImage" />
        <dc:title></dc:title>
      </cc:Work>
    </rdf:RDF>
  </metadata>
  <g
     inkscape:label="Layer 1"
     inkscape:groupmode="layer"
     id="layer1">
    <path
       style="fill:#5ea227;fill-opacity:1"
       d="m 235.52128,280.20204 c -6.35251,-16.63532 -7.79505,-21.14371 -7.41337,-23.16918 0.71873,-3.81406 8.10774,-18.04401 13.74278,-26.4662 6.17357,-9.22707 14.591,-19.78406 23.31238,-29.23797 5.14481,-5.57693 6.75502,-6.91214 7.25606,-6.01684 0.9371,1.67451 4.17771,17.15392 5.73083,27.37441 1.68609,11.0956 1.90113,35.18326 0.39488,44.23298 -0.83387,5.00995 -1.44847,6.63993 -3.06813,8.13692 -2.22675,2.05812 -29.90271,24.46206 -31.23684,25.28652 -0.53036,0.32774 -3.68676,-6.96381 -8.71859,-20.14064 z"
       id="path3342"
       inkscape:connector-curvature="0" />
    <path
       style="fill:#5ea227;fill-opacity:1"
       d="m 93.139797,180.40265 c -6.22187,-10.1781 -11.44616,-19.23865 -11.60954,-20.13456 -0.41003,-2.2485 2.85739,-14.64421 6.29272,-23.87282 3.81992,-10.2618 13.020383,-28.17821 19.922333,-38.795519 l 5.61549,-8.63835 1.59733,3.13104 c 2.22286,4.35716 5.94219,13.749329 9.03916,22.825959 5.60716,16.43349 8.69137,32.24973 8.69932,44.61132 l 0.005,7.02679 -13.82027,16.17589 c -7.60115,8.89674 -13.95714,16.1759 -14.12442,16.1759 -0.16728,0 -5.394773,-8.32754 -11.616643,-18.50565 z"
       id="path3344"
       inkscape:connector-curvature="0" />
    <path
       style="fill:#5ea227;fill-opacity:1"
       d="m 110.01595,254.09867 c 0.26129,-2.30054 0.99711,-10.89246 1.63515,-19.09315 0.68464,-8.79973 1.54218,-15.39877 2.09244,-16.10213 3.17766,-4.0618 36.70378,-42.93011 38.2307,-44.32254 1.83323,-1.67177 20.60443,-10.95598 22.15124,-10.95598 0.43537,0 0.625,0.77662 0.42139,1.72582 -0.20361,0.9492 -0.92915,4.65972 -1.6123,8.24558 -2.65979,13.96114 -8.25999,33.7011 -12.31269,43.40058 -0.99613,2.38407 -8.85675,8.74326 -50.04756,40.48816 -0.84943,0.65464 -0.94886,0.0516 -0.55837,-3.38634 z"
       id="path3346"
       inkscape:connector-curvature="0" />
    <path
       style="fill:#5ea227;fill-opacity:1"
       d="m 70.955127,235.94807 c -10.54667,-11.22909 -19.74948,-21.30915 -20.45068,-22.40014 -2.99615,-4.6617 -6.55678,-28.17865 -7.31567,-48.31789 -0.40332,-10.70313 -0.31262,-12.49065 0.60654,-11.95455 0.59442,0.3467 4.62776,3.0488 8.96299,6.00469 l 7.88223,5.37432 12.49829,20.38678 c 6.87406,11.21273 14.27695,23.32068 16.45088,26.90655 l 3.95258,6.51976 -1.5286,18.40875 c -0.84073,10.12481 -1.60829,18.65163 -1.70569,18.9485 -0.0974,0.29686 -8.80619,-8.64769 -19.35287,-19.87677 z"
       id="path3348"
       inkscape:connector-curvature="0" />
    <path
       style="fill:#5ea227;fill-opacity:1"
       d="m 76.788117,323.48756 c -18.49879,-4.97461 -32.96674,-26.048 -40.24189,-58.61459 -2.01009,-8.998 -4.32617,-25.55797 -4.32617,-30.93216 0,-2.53376 0.20152,-2.90025 1.34231,-2.44124 0.73827,0.29705 3.17127,1.25125 5.40668,2.12043 2.23541,0.86918 5.40847,2.82035 7.05126,4.33591 6.77488,6.25023 42.19252,44.88336 42.18648,46.0165 -0.004,0.67479 -0.68741,9.51082 -1.51957,19.63563 -0.83217,10.12481 -1.51955,19.01279 -1.52752,19.75105 -0.0179,1.66015 -2.5323,1.69874 -8.37158,0.12847 z"
       id="path3350"
       inkscape:connector-curvature="0" />
    <path
       style="fill:#5ea227;fill-opacity:1"
       d="m 107.38911,326.36765 c -2.64911,-0.79625 -2.70968,-2.07727 -1.11244,-23.52664 l 1.37082,-18.40874 21.77658,-16.87469 c 11.97712,-9.28107 23.06389,-17.83275 24.63727,-19.00371 2.79344,-2.07898 18.73063,-6.74229 19.70664,-5.76627 0.96913,0.96913 -5.00212,21.59016 -9.61587,33.20732 -10.16135,25.5857 -26.20283,44.44991 -41.7908,49.14451 -4.62635,1.39332 -12.32248,2.02465 -14.9722,1.22822 z"
       id="path3352"
       inkscape:connector-curvature="0" />
    <path
       style="fill:#5ea227;fill-opacity:1"
       d="m 97.427957,563.45943 c -0.152,-0.48125 -1.27488,-4.8125 -2.4953,-9.625 -7.38224,-29.11052 -11.65409,-57.35219 -13.87815,-91.75 -0.79385,-12.278 -0.79476,-52.05099 -0.002,-65.25 1.5073,-25.07914 3.89347,-50.4264 4.84186,-51.43285 0.54351,-0.57679 1.7577,-0.55518 7.81774,0.13914 10.584643,1.21271 9.545533,0.5972 9.177933,5.43647 -0.1716,2.25898 -0.63264,7.59474 -1.02453,11.85724 -2.678013,29.12827 -3.421163,47.22513 -3.079373,74.98754 0.41694,33.867 2.655613,57.52522 8.138963,86.01246 2.59239,13.46804 7.84373,35.35437 9.54919,39.79874 0.22508,0.58655 -1.28814,0.70126 -9.25069,0.70126 -8.627873,0 -9.545703,-0.082 -9.796163,-0.875 z"
       id="path3368"
       inkscape:connector-curvature="0" />
    <path
       style="fill:#5ea227;fill-opacity:1"
       d="m 197.88692,419.89962 c -9.30873,-2.67958 -18.22404,-11.04798 -23.97531,-22.50455 -3.92917,-7.82693 -7.39296,-20.77793 -8.8422,-33.06064 -0.88503,-7.50092 -0.74356,-29.0641 0.24899,-37.9512 0.44234,-3.96066 0.87975,-7.27669 0.97202,-7.36896 0.29973,-0.29973 10.56508,6.63258 11.65275,7.86923 1.80517,2.05246 34.19375,52.86915 34.19375,53.64897 0,0.40543 -2.3625,9.54131 -5.25,20.30196 -2.8875,10.76066 -5.25,19.66274 -5.25,19.78241 0,0.31973 -0.44006,0.23557 -3.75,-0.71722 z"
       id="path3370"
       inkscape:connector-curvature="0" />
    <path
       style="fill:#5ea227;fill-opacity:1"
       d="m 202.80049,329.6881 -16.07909,-25.10367 -0.33587,-7.25 c -0.36108,-7.79394 0.31198,-22.24806 1.525,-32.75 1.07339,-9.29316 2.73608,-19.41782 3.2822,-19.98651 0.29674,-0.30899 3.26832,2.33628 8.14431,7.25 l 7.6771,7.73651 11.08057,29.01723 11.08057,29.01723 -4.85171,18.23277 c -2.66845,10.02803 -4.98498,18.39192 -5.14785,18.58644 -0.16287,0.19452 -7.53172,-10.94298 -16.37523,-24.75 z"
       id="path3372"
       inkscape:connector-curvature="0" />
    <path
       style="fill:#5ea227;fill-opacity:1"
       d="m 238.47853,356.95943 c 3.52382,-13.5681 9.27207,-34.43092 9.55599,-34.68272 2.15323,-1.90958 45.23087,-36.4665 46.31151,-37.15113 1.98747,-1.25916 21.65481,-6.79115 24.14389,-6.79115 0.80804,0 -1.26749,5.84785 -6.21115,17.5 -4.22337,9.95443 -10.5567,22.43617 -15.253,30.06063 l -3.19641,5.18937 -27.72122,14.3524 c -15.24667,7.89381 -27.86861,14.36256 -28.04875,14.375 -0.18014,0.0125 0.008,-1.27115 0.41914,-2.8524 z"
       id="path3374"
       inkscape:connector-curvature="0" />
    <path
       style="fill:#5ea227;fill-opacity:1"
       d="m 228.38692,428.1216 c -0.275,-0.10987 -2.13125,-0.6759 -4.125,-1.25785 -3.36657,-0.98267 -3.62323,-1.1551 -3.6002,-2.41871 0.0136,-0.74833 2.32551,-9.87942 5.13749,-20.2913 l 5.11268,-18.93069 27.41064,-14.1848 27.41064,-14.18481 6.27448,-0.5095 c 6.45852,-0.52445 12.12927,-0.66649 12.12927,-0.30381 0,0.70107 -4.14067,9.64926 -7.62944,16.48761 -7.74534,15.18164 -15.31362,26.13512 -24.86788,35.99094 -6.78722,7.00145 -12.47155,11.42103 -19.00268,14.77461 -7.09205,3.64161 -10.65608,4.61301 -17.75,4.83788 -3.3,0.10461 -6.225,0.1003 -6.5,-0.01 l 0,-2e-5 z"
       id="path3376"
       inkscape:connector-curvature="0" />
    <path
       style="fill:#5ea227;fill-opacity:1"
       d="m 172.13692,562.84383 c 0,-1.98847 2.217,-18.34849 3.79564,-28.0094 3.40247,-20.82233 9.05556,-46.3758 15.26457,-69 3.10954,-11.3304 6.99982,-24.19292 7.50587,-24.81679 0.33301,-0.41055 2.58995,0.0906 8.18715,1.81779 4.25007,1.31152 8.04467,2.50633 8.43245,2.65513 0.5669,0.21754 0.22051,1.86997 -1.76759,8.43222 -9.53757,31.48125 -17.68904,68.23933 -21.65746,97.66165 -0.70474,5.225 -1.39938,10.23125 -1.54364,11.125 l -0.2623,1.625 -8.97734,0 -8.97735,0 0,-1.4906 z"
       id="path3378"
       inkscape:connector-curvature="0" />
    <path
       style="fill:#5ea227;fill-opacity:1"
       d="m 288.8586,558.95943 c 1.14974,-19.43888 2.18956,-31.30349 4.06433,-46.375 6.0462,-48.60634 18.02032,-96.42154 37.16942,-148.42546 7.13133,-19.3668 20.25538,-50.62827 21.61343,-51.48314 0.63108,-0.39725 2.58022,0.26551 8.5,2.89024 4.22463,1.87314 7.734,3.4464 7.7986,3.49615 0.0646,0.0497 -1.91906,4.8001 -4.40814,10.55634 -29.98154,69.33516 -47.45154,133.5603 -54.18911,199.21587 -0.96046,9.35949 -2.2603,27.78824 -2.26587,32.125 l -0.004,3.375 -9.29811,0 -9.29812,0 0.31791,-5.375 z"
       id="path3380"
       inkscape:connector-curvature="0" />
    <path
       inkscape:connector-curvature="0"
       style="fill:#5ea227;fill-opacity:1"
       d="m 487.63708,91.238831 -2.375,1.37695 c -23.6351,13.702719 -47.01525,33.388329 -56.49414,47.566399 l -1.73632,2.59766 2.14257,20.90235 c 1.17827,11.49651 2.32228,21.40859 2.54102,22.02734 l -0.002,0 c 0.21937,0.62056 0.81544,1.125 1.32812,1.125 0.80919,0 32.58496,-13.91048 36.96875,-16.18359 1.8135,-0.94035 3.64516,-4.17635 6.40039,-11.31055 5.8798,-15.22475 9.54909,-34.31281 10.7168,-55.75586 0.26956,-4.949999 0.495,-9.751999 0.5,-10.671879 l 0.01,-1.67382 z m -91.57617,28.095699 c -0.99239,0 -9.10232,19.56091 -13.16406,31.75 -1.74112,5.225 -4.01044,13.0343 -5.04102,17.35352 l -1.87304,7.85351 7.14062,22.39648 c 3.92687,12.31829 8.03054,25.19002 9.1211,28.60547 l 1.98437,6.21094 0.89063,-1.46094 c 0.49025,-0.80295 4.87637,-8.36933 9.74609,-16.8164 l 8.85352,-15.35938 -3.23243,-30.92968 c -2.43245,-23.27011 -3.44642,-31.35249 -4.09375,-32.64063 -1.84651,-3.67435 -9.94058,-16.96289 -10.33203,-16.96289 z m 89.50196,65.5 -25.0879,11.18945 c -13.79851,6.15465 -26.21544,11.67315 -27.59374,12.26172 l -2.50586,1.07031 -9.61914,16.67774 c -5.29044,9.17273 -9.61915,16.82978 -9.61915,17.01757 0,0.18774 0.16875,0.23805 0.375,0.11133 0.20625,-0.12671 4.0875,-1.03195 8.625,-2.01172 34.41959,-7.43215 49.57207,-10.88032 51.55665,-11.73242 5.49513,-2.35939 23.10773,-21.77375 35.5,-39.13086 1.89325,-2.65177 3.44335,-4.96291 3.44335,-5.13672 0,-0.17382 -5.64189,-0.3164 -12.53711,-0.3164 l -12.5371,0 z m -133.02149,0.39453 c -0.73054,0.73054 -5.46941,13.84266 -7.68164,21.25391 -2.37801,7.96663 -4.7383,18.72441 -5.7832,26.35156 -0.96152,7.01851 -0.84101,22.163 0.22265,27.94922 2.52901,13.75761 7.95409,23.21152 16.66407,29.03711 2.06647,1.38215 3.90663,2.5089 4.08984,2.5039 0.28483,-0.009 20.53325,-34.75219 21,-36.0332 0.21346,-0.58585 -18.27566,-58.67458 -19.35547,-60.81055 -1.15222,-2.27918 -8.68965,-10.71856 -9.15625,-10.25195 z m 106.0957,67.57812 c -1.2375,-10e-4 -15.40846,2.88777 -31.49023,6.41993 l -29.23828,6.42187 -10.39258,17.9668 -10.39062,17.96875 1.38086,1.16992 c 2.16163,1.8315 9.08023,5.02358 12.64453,5.83398 4.75179,1.08039 13.91481,0.6639 19.98632,-0.9082 9.38021,-2.42882 19.80129,-7.87476 30.75,-16.06641 7.20003,-5.38694 22.96439,-20.89289 29.67383,-29.1875 4.29355,-5.30796 5.11017,-6.58875 4.20117,-6.59374 -0.20625,-0.001 -3.6375,-0.68263 -7.625,-1.51368 -3.9875,-0.83105 -8.2625,-1.51072 -9.5,-1.51172 z"
       id="path3382" />
    <path
       style="fill:#5ea227;fill-opacity:1"
       d="m 432.99288,405.95943 c -0.11169,-0.20625 -2.64404,-10.02297 -5.62746,-21.81494 l -5.42439,-21.43994 1.91584,-3.72166 c 2.42722,-4.71506 7.21732,-11.88746 12.44696,-18.63728 7.91294,-10.21312 34.4375,-35.51118 37.23283,-35.51118 1.33773,0 1.39991,0.25985 2.39317,10 0.68538,6.72097 0.7806,10.98373 0.51375,23 -0.18016,8.1125 -0.53554,17.02339 -0.78973,19.80198 -0.58235,6.36564 -2.55931,16.1722 -4.37274,21.6907 l -1.39419,4.24268 -18,11.362 c -9.9,6.24909 -18.15547,11.37113 -18.34549,11.38231 -0.19002,0.0112 -0.43687,-0.14842 -0.54855,-0.35467 z"
       id="path3396"
       inkscape:connector-curvature="0" />
    <path
       style="fill:#5ea227;fill-opacity:1"
       d="m 389.4176,430.34 c -14.79499,-30.64983 -13.46742,-26.27684 -11.97859,-39.45721 1.38005,-12.21737 3.78914,-24.07498 7.81951,-38.48783 l 2.56971,-9.18948 1.02935,1.24378 c 6.82413,8.24576 11.52071,14.36119 12.33199,16.0575 0.54651,1.14272 4.32606,15.26519 8.399,31.38327 l 7.40533,29.3056 -7.15523,17.87948 c -3.93538,9.83371 -7.22195,17.93644 -7.30349,18.00605 -0.0815,0.0696 -5.98445,-11.96391 -13.11758,-26.74116 z"
       id="path3398"
       inkscape:connector-curvature="0" />
    <path
       style="fill:#5ea227;fill-opacity:1"
       d="m 420.63616,463.95241 c -4.2e-4,-0.20239 3.16844,-8.28826 7.04192,-17.9686 l 7.04269,-17.60063 4.33308,-2.70429 c 2.38319,-1.48736 13.33307,-8.38337 24.33307,-15.32448 11,-6.94111 20.82418,-13.04224 21.83152,-13.55807 2.33596,-1.19617 25.41848,-4.61736 25.41848,-3.76741 0,1.41334 -10.30829,19.9544 -15.82079,28.45617 -2.99717,4.62243 -11.33313,16.01777 -14.25769,19.49039 -0.96008,1.14 -5.9994,3.19508 -27.92152,11.38665 -14.7125,5.49757 -27.93125,10.43719 -29.375,10.97692 -1.44375,0.53974 -2.62534,0.81575 -2.62576,0.61335 z"
       id="path3400"
       inkscape:connector-curvature="0" />
    <path
       style="fill:#5ea227;fill-opacity:1"
       d="m 408.21506,531.78066 c -3.78702,-0.47266 -8.63212,-2.02412 -11.1598,-3.57349 l -1.83167,-1.12274 7.72606,-19.29683 7.72605,-19.29683 26.60561,-9.92867 c 14.63309,-5.46077 28.06109,-10.33285 29.84,-10.82684 2.91942,-0.81071 4.0393,-0.84542 11.5,-0.35651 4.54609,0.29791 8.31432,0.58977 8.37386,0.64858 0.18333,0.18109 -6.02715,10.35194 -9.36516,15.33724 -10.40052,15.53312 -23.2804,29.44317 -34.74309,37.52193 -11.72565,8.26409 -24.23992,12.19617 -34.67186,10.89416 z"
       id="path3402"
       inkscape:connector-curvature="0" />
    <path
       style="fill:#5ea227;fill-opacity:1"
       d="m 372.26036,518.31086 c -17.01448,-8.30231 -26.20449,-32.86944 -24.16146,-64.58948 0.78802,-12.23465 2.92491,-25.99614 5.6695,-36.51122 l 0.61972,-2.37427 5.23348,4.37427 5.23347,4.37427 13.89093,28.68973 c 7.64001,15.77935 13.88046,28.94185 13.86768,29.25 -0.0467,1.12652 -15.26272,38.48877 -15.73722,38.6421 -0.26924,0.087 -2.34649,-0.74793 -4.6161,-1.8554 z"
       id="path3404"
       inkscape:connector-curvature="0" />
    <path
       style="fill:#5ea227;fill-opacity:1"
       d="m 368.41949,561.95943 c 0.97376,-8.77874 2.92143,-20.49566 3.50373,-21.07796 0.1204,-0.1204 4.17028,0.7433 8.99972,1.91934 7.05041,1.71687 8.7245,2.28502 8.49504,2.883 -0.4916,1.28106 -2.18341,11.22958 -2.55521,15.02562 l -0.35506,3.625 -9.17583,0 -9.17583,0 0.26344,-2.375 z"
       id="path3406"
       inkscape:connector-curvature="0" />
  </g>
</svg>
