<?xml version="1.0" encoding="UTF-8" standalone="no"?>
<!-- Created with Inkscape (http://www.inkscape.org/) -->

<svg
   xmlns:dc="http://purl.org/dc/elements/1.1/"
   xmlns:cc="http://creativecommons.org/ns#"
   xmlns:rdf="http://www.w3.org/1999/02/22-rdf-syntax-ns#"
   xmlns:svg="http://www.w3.org/2000/svg"
   xmlns="http://www.w3.org/2000/svg"
   xmlns:sodipodi="http://sodipodi.sourceforge.net/DTD/sodipodi-0.dtd"
   xmlns:inkscape="http://www.inkscape.org/namespaces/inkscape"
   width="210mm"
   height="297mm"
   viewBox="0 0 744.09448819 1052.3622047"
   id="svg3349"
   version="1.1"
   inkscape:version="0.91 r13725"
   sodipodi:docname="wood.svg">
  <defs
     id="defs3351" />
  <sodipodi:namedview
     id="base"
     pagecolor="#ffffff"
     bordercolor="#666666"
     borderopacity="1.0"
     inkscape:pageopacity="0.0"
     inkscape:pageshadow="2"
     inkscape:zoom="0.35"
     inkscape:cx="797.85714"
     inkscape:cy="662.85714"
     inkscape:document-units="px"
     inkscape:current-layer="layer1"
     showgrid="false"
     inkscape:window-width="1920"
     inkscape:window-height="1137"
     inkscape:window-x="1912"
     inkscape:window-y="-8"
     inkscape:window-maximized="1" />
  <metadata
     id="metadata3354">
    <rdf:RDF>
      <cc:Work
         rdf:about="">
        <dc:format>image/svg+xml</dc:format>
        <dc:type
           rdf:resource="http://purl.org/dc/dcmitype/StillImage" />
        <dc:title></dc:title>
      </cc:Work>
    </rdf:RDF>
  </metadata>
  <g
     inkscape:label="Layer 1"
     inkscape:groupmode="layer"
     id="layer1">
    <path
       inkscape:connector-curvature="0"
       style="fill:#000000"
       d="m 495.66917,120.86361 c -16.368,0.073 -31,5.07 -41.975,16.044 l -275.885,275.886 c 4.225,-0.493 8.42,-0.613 12.56,-0.372 3.104,0.18 6.177,0.564 9.21,1.14 13.84,2.63 26.617,8.977 37.984,17.714 27.167,-24.11 141.885,-119.71 141.885,-119.71 -40.545,46.737 -88.255,89.892 -120.536,140.76 0.593,0.734 1.195,1.46 1.775,2.205 15.83,20.355 26.67,45.27 29.923,69.563 0.955,7.135 1.235,14.277 0.74,21.23 l 181.06,-181.06 -7.742,-4.647 c -0.48,0.215 -0.962,0.43 -1.493,0.647 l -45.254,22.627 45.254,-45.254 c 0,0.09 0.02,0.18 0.026,0.27 l 0.072,-0.12 43.52,26.114 c 1.272,-5.898 3.794,-11.413 7.824,-16.05 4.662,-5.37 11.21,-9.078 19,-10.74 l -26.124,-43.542 15.435,-9.262 11.04,18.4 42.762,-42.762 c 21.036,-21.035 26.396,-41.327 23.27,-60.39 -1.63,-9.942 -5.823,-19.683 -11.913,-28.747 l -72.876,72.875 63.522,-84.697 c -3.586,-3.89 -7.52,-7.585 -11.752,-11.03 -8.926,-7.268 -19.102,-13.37 -29.695,-17.936 0.182,0.177 0.37,0.35 0.55,0.527 l -56.567,33.942 21.668,-43.337 c -1.333,-0.107 -2.66,-0.187 -3.974,-0.233 -1.106,-0.04 -2.205,-0.055 -3.297,-0.05 z m 43.593,233.36 c -5.373,0.6 -8.696,2.71 -11.058,5.43 -2.093,2.41 -3.55,5.79 -4.127,9.872 4.65,-0.945 7.952,-2.652 10.228,-4.928 2.3,-2.3 4.02,-5.645 4.957,-10.375 z m -353.593,75.982 c -15.297,-0.065 -31.403,6.298 -48.342,23.08 -14.82,15.01 -19.83,34.54 -17.672,55.385 2.17,20.985 12,42.9 26.424,59.945 2.267,2.68 4.655,5.22 7.125,7.633 3.784,-12.452 22.964,-33.344 33.912,-49.724 -7.955,21.334 -13.49,43.014 -12.62,65.61 7.806,4.22 16.034,7.09 24.415,8.25 19.47,2.693 40.22,-3.064 61.29,-23.92 11.398,-11.606 15.307,-29.53 12.57,-49.983 -2.76,-20.61 -12.425,-43.073 -26.292,-60.902 -13.867,-17.83 -31.744,-30.818 -50.262,-34.338 -3.472,-0.66 -6.987,-1.022 -10.547,-1.037 z m -8.21,19.8 a 73.833,55.395 45 0 1 60.14,26.034 73.833,55.395 45 0 1 13.038,91.377"
       id="path6" />
  </g>
</svg>
